<svg width="32" height="32" viewBox="0 0 32 32" fill="none" xmlns="http://www.w3.org/2000/svg">
<g clip-path="url(#clip0_0_2320)">
<path d="M24.4853 20.7147L22.6 18.8267L24.4853 16.9413C25.1088 16.3233 25.6041 15.5881 25.9427 14.7781C26.2814 13.9681 26.4567 13.0992 26.4586 12.2213C26.4605 11.3433 26.289 10.4737 25.9539 9.66221C25.6189 8.85073 25.1268 8.11343 24.506 7.49264C23.8852 6.87184 23.1479 6.37978 22.3364 6.0447C21.525 5.70961 20.6553 5.53811 19.7774 5.54003C18.8994 5.54196 18.0305 5.71727 17.2205 6.0559C16.4105 6.39453 15.6754 6.88982 15.0573 7.51333L13.172 9.4L11.2853 7.51466L13.1733 5.62933C14.9237 3.8789 17.2978 2.89552 19.7733 2.89552C22.2488 2.89552 24.6229 3.8789 26.3733 5.62933C28.1237 7.37976 29.1071 9.75385 29.1071 12.2293C29.1071 14.7048 28.1237 17.0789 26.3733 18.8293L24.4866 20.7147H24.4853ZM20.7146 24.4853L18.828 26.3707C17.0775 28.1211 14.7035 29.1045 12.228 29.1045C9.7525 29.1045 7.3784 28.1211 5.62797 26.3707C3.87755 24.6202 2.89417 22.2461 2.89417 19.7707C2.89417 17.2952 3.87755 14.9211 5.62797 13.1707L7.51464 11.2853L9.39997 13.1733L7.51464 15.0587C6.89113 15.6767 6.39585 16.4119 6.05721 17.2219C5.71858 18.0319 5.54327 18.9008 5.54135 19.7787C5.53942 20.6566 5.71093 21.5263 6.04601 22.3378C6.38109 23.1493 6.87316 23.8866 7.49395 24.5074C8.11475 25.1281 8.85204 25.6202 9.66352 25.9553C10.475 26.2904 11.3447 26.4619 12.2226 26.46C13.1005 26.458 13.9694 26.2827 14.7794 25.9441C15.5894 25.6055 16.3246 25.1102 16.9426 24.4867L18.828 22.6013L20.7146 24.4867V24.4853ZM19.7706 10.3427L21.6573 12.2293L12.2293 21.656L10.3426 19.7707L19.7706 10.344V10.3427Z" fill="white"/>
</g>
<defs>
<clipPath id="clip0_0_2320">
<rect width="32" height="32" fill="white"/>
</clipPath>
</defs>
</svg>
